# xmcd CD database file
#
# Track frame offsets:
#	150
#	17132
#	30949
#	44936
#	62985
#	77300
#	92334
#	108562
#	124195
#	149813
#	167034
#	186631
#	200787
#	220853
#
# Disc length: 3127 seconds
#
# Revision: 0
# Processed by: cddbd v1.5.2PL0 Copyright (c) Steve Scherf et al.
# Submitted via: CDex 1.51
#
DISCID=d20c350e
DTITLE=Billie Holiday - Singin' the Greatest Songs
DYEAR=2009
DGENRE=Jazz
TTITLE0=Lady Sings the blues
TTITLE1=Strange Fruit
TTITLE2=I Must Have That Man
TTITLE3=God Bless the Child
TTITLE4=Travelin' Light
TTITLE5=No Good Man
TTITLE6=Some Other Spring
TTITLE7=Good Morning Heartache
TTITLE8=All Or Nothing At All
TTITLE9=Nice Work If You Can Get It
TTITLE10=Please Don't Talk About Me When I'm Gone
TTITLE11=Willow Weep For Me
TTITLE12=Speak Low
TTITLE13=April In Paris
EXTD=YEAR: 2009
EXTT0=
EXTT1=
EXTT2=
EXTT3=
EXTT4=
EXTT5=
EXTT6=
EXTT7=
EXTT8=
EXTT9=
EXTT10=
EXTT11=
EXTT12=
EXTT13=
PLAYORDER=
